#!OML:ASF I:\Actors\actors\Patient Classification 2\Patient 1\Session 1\actor1.ASF
:FULLY-SPECIFIED
:DEGREES
542
root -0.802017 18.6515 6.12626 1.35763 -2.52279 -4.89053
lowerback 2.70046 0.935915 3.07842
upperback -2.25858 1.43027 1.25156
thorax -3.79984 0.646526 -0.519464
lowerneck -11.483 -1.74277 -0.304218
upperneck 18.4424 -2.75693 2.05754
head 7.60274 -1.146 0.451931
rclavicle -2.01083e-014 -1.78906e-014
rhumerus -49.7754 -4.82448 -82.5369
rradius 43.4946
rwrist 11.9432
rhand -8.98597 -30.7724
rfingers 7.12502
rthumb 16.9599 -60.0519
lclavicle -2.01083e-014 -1.78906e-014
lhumerus -42.0045 -0.115035 90.1341
lradius 36.6172
lwrist -11.7558
lhand -4.29235 -24.2524
lfingers 7.12502
lthumb 21.4732 4.57746
rfemur 0 0 0
rtibia 0
rfoot 0 0
rtoes 0
lfemur -3.26515 -7.66256 -9.27587
ltibia 22.6526
lfoot -25.0228 14.7719
ltoes -55.0072
543
root -0.801713 18.6524 6.12508 1.40678 -2.48125 -4.90474
lowerback 2.68812 0.954348 3.10775
upperback -2.27699 1.45503 1.21814
thorax -3.80965 0.657288 -0.571625
lowerneck -11.4921 -1.79771 -0.349591
upperneck 18.4173 -2.85179 2.20102
head 7.60036 -1.18112 0.496964
rclavicle -2.32578e-014 -6.75868e-015
rhumerus -49.8297 -4.96168 -82.452
rradius 43.171
rwrist 12.4912
rhand -9.34593 -30.6551
rfingers 7.12502
rthumb 16.6134 -59.964
lclavicle -2.32578e-014 -6.75868e-015
lhumerus -41.9822 -0.183429 90.1159
lradius 36.5599
lwrist -11.7211
lhand -4.22987 -24.3009
lfingers 7.12502
lthumb 21.5332 4.5221
rfemur 0 0 0
rtibia 0
rfoot 0 0
rtoes 0
lfemur -3.34598 -7.68224 -9.24957
ltibia 22.6682
lfoot -24.9974 14.7896
ltoes -55.0479
544
root -0.800928 18.6538 6.12319 1.46078 -2.43087 -4.93937
lowerback 2.6902 0.970315 3.16098
upperback -2.30782 1.47901 1.19761
thorax -3.84033 0.666779 -0.624211
lowerneck -11.4153 -1.80668 -0.25923
upperneck 18.2904 -2.86548 2.13865
head 7.54288 -1.18918 0.461213
rclavicle -7.33018e-016 1.33186e-014
rhumerus -49.9481 -5.04211 -82.4217
rradius 42.7785
rwrist 13.5066
rhand -10.0816 -30.1276
rfingers 7.12502
rthumb 15.9051 -59.4944
lclavicle -7.33018e-016 1.33186e-014
lhumerus -42.0179 -0.258761 90.1285
lradius 36.5612
lwrist -11.621
lhand -4.13596 -24.2262
lfingers 7.12502
lthumb 21.6234 4.58648
rfemur 0 0 0
rtibia 0
rfoot 0 0
rtoes 0
lfemur -3.43198 -7.7243 -9.20402
ltibia 22.6873
lfoot -24.9877 14.8021
ltoes -55.0951
545
root -0.799727 18.6557 6.12079 1.4927 -2.38816 -4.95651
lowerback 2.72217 0.970242 3.1801
upperback -2.3405 1.48219 1.1978
thorax -3.89186 0.666812 -0.635809
lowerneck -11.3138 -1.80752 -0.216207
upperneck 18.1417 -2.85573 2.06445
head 7.47407 -1.19085 0.432126
rclavicle 1.0051e-014 1.13307e-014
rhumerus -50.0817 -5.07128 -82.3802
rradius 42.5038
rwrist 14.0662
rhand -10.5619 -29.7944
rfingers 7.12502
rthumb 15.4425 -59.1975
lclavicle 1.0051e-014 1.13307e-014
lhumerus -42.1163 -0.244924 90.1423
lradius 36.5824
lwrist -11.6105
lhand -4.14367 -24.2515
lfingers 7.12502
lthumb 21.616 4.56198
rfemur 0 0 0
rtibia 0
rfoot 0 0
rtoes 0
lfemur -3.49091 -7.80116 -9.19111
ltibia 22.7113
lfoot -24.9902 14.8602
ltoes -55.1444
546
root -0.798485 18.6576 6.11931 1.53266 -2.36727 -4.94942
lowerback 2.73591 0.971667 3.17033
upperback -2.37456 1.48506 1.19122
thorax -3.93496 0.667505 -0.637892
lowerneck -11.2774 -1.83047 -0.265317
upperneck 18.1027 -2.89305 2.14793
head 7.45734 -1.20504 0.464283
rclavicle -2.04313e-014 -5.56597e-015
rhumerus -50.2028 -5.10428 -82.3603
rradius 42.3678
rwrist 13.9625
rhand -10.8172 -29.7169
rfingers 7.12502
rthumb 15.1965 -59.1389
lclavicle -2.04313e-014 -5.56597e-015
lhumerus -42.2229 -0.204124 90.141
lradius 36.5736
lwrist -11.6429
lhand -4.21992 -24.3584
lfingers 7.12502
lthumb 21.5428 4.46354
rfemur 0 0 0
rtibia 0
rfoot 0 0
rtoes 0
lfemur -3.54897 -7.91404 -9.21639
ltibia 22.7394
lfoot -25.0265 14.9667
ltoes -55.1689
547
root -0.797546 18.6592 6.11855 1.59579 -2.34439 -4.96752
lowerback 2.70814 0.973264 3.19242
upperback -2.398 1.48746 1.18522
thorax -3.94283 0.667679 -0.65622
lowerneck -11.3032 -1.84709 -0.301929
upperneck 18.119 -2.92793 2.24191
head 7.46985 -1.21513 0.497311
rclavicle 5.80824e-015 1.76918e-014
rhumerus -50.3107 -5.13628 -82.3762
rradius 42.3395
rwrist 13.9518
rhand -10.7612 -29.7881
rfingers 7.12502
rthumb 15.2505 -59.206
lclavicle 5.80824e-015 1.76918e-014
lhumerus -42.2952 -0.217985 90.1616
lradius 36.5817
lwrist -11.5981
lhand -4.20377 -24.385
lfingers 7.12502
lthumb 21.5583 4.43507
rfemur 0 0 0
rtibia 0
rfoot 0 0
rtoes 0
lfemur -3.62413 -7.9992 -9.20029
ltibia 22.7499
lfoot -25.0658 15.0233
ltoes -55.1424
548
root -0.796831 18.6604 6.11789 1.65199 -2.30297 -5.01156
lowerback 2.6602 0.96194 3.22929
upperback -2.39879 1.4723 1.197
thorax -3.91651 0.659668 -0.662851
lowerneck -11.3692 -1.87366 -0.316322
upperneck 18.1206 -2.95567 2.20931
head 7.48218 -1.23182 0.485708
rclavicle -1.88224e-014 -3.97569e-016
rhumerus -50.3887 -5.17225 -82.3923
rradius 42.3543
rwrist 14.1975
rhand -10.4082 -30.0009
rfingers 7.12502
rthumb 15.5905 -59.3926
lclavicle -1.88224e-014 -3.97569e-016
lhumerus -42.3269 -0.222383 90.1971
lradius 36.5693
lwrist -11.5832
lhand -4.18659 -24.4099
lfingers 7.12502
lthumb 21.5748 4.40828
rfemur 0 0 0
rtibia 0
rfoot 0 0
rtoes 0
lfemur -3.69238 -8.06788 -9.14312
ltibia 22.7393
lfoot -25.093 15.0239
ltoes -55.076
549
root -0.794726 18.6609 6.11789 1.70215 -2.27493 -4.9812
lowerback 2.61412 0.959144 3.21278
upperback -2.40521 1.46528 1.17774
thorax -3.89714 0.656595 -0.672233
lowerneck -11.3971 -1.90076 -0.305461
upperneck 18.0943 -2.98462 2.15912
head 7.47793 -1.24962 0.464485
rclavicle 1.14301e-015 1.19271e-014
rhumerus -50.4692 -5.23104 -82.4223
rradius 42.2795
rwrist 14.3196
rhand -10.352 -29.8814
rfingers 7.12502
rthumb 15.6447 -59.2688
lclavicle 1.14301e-015 1.19271e-014
lhumerus -42.3601 -0.216841 90.2247
lradius 36.5174
lwrist -11.5527
lhand -4.19733 -24.3762
lfingers 7.12502
lthumb 21.5645 4.44317
rfemur 0 0 0
rtibia 0
rfoot 0 0
rtoes 0
lfemur -3.75957 -8.08198 -9.17312
ltibia 22.7311
lfoot -25.0917 15.004
ltoes -55.0459
550
root -0.791834 18.6619 6.11851 1.76602 -2.2563 -4.91202
lowerback 2.55097 0.969102 3.18742
upperback -2.4161 1.47329 1.13011
thorax -3.87165 0.660879 -0.706458
lowerneck -11.3951 -1.88384 -0.228366
upperneck 18.0547 -2.96988 2.13263
head 7.46288 -1.24019 0.444663
rclavicle -1.13307e-014 1.15295e-014
rhumerus -50.5308 -5.28169 -82.4907
rradius 42.1131
rwrist 14.1968
rhand -10.5963 -29.5056
rfingers 7.12502
rthumb 15.4094 -58.9113
lclavicle -1.13307e-014 1.15295e-014
lhumerus -42.4098 -0.255407 90.2564
lradius 36.4925
lwrist -11.46
lhand -4.18377 -24.3619
lfingers 7.12502
lthumb 21.5775 4.45603
rfemur 0 0 0
rtibia 0
rfoot 0 0
rtoes 0
lfemur -3.84422 -8.01664 -9.24076
ltibia 22.7264
lfoot -25.0457 14.9613
ltoes -55.089
